<svg xmlns="http://www.w3.org/2000/svg" width="1280" height="720" viewBox="0 0 1280 720" role="img" aria-label="FrostSight overview mock screenshot">
  <rect width="1280" height="720" fill="#0b1120" />
  <rect x="0" y="0" width="260" height="720" fill="#0f172a" />
  <text x="28" y="50" fill="#e2e8f0" font-size="30" font-family="Inter,Arial,sans-serif">FrostSight</text>
  <text x="28" y="78" fill="#94a3b8" font-size="15" font-family="Inter,Arial,sans-serif">Cost + Performance + Governance</text>

  <g font-family="Inter,Arial,sans-serif" font-size="16" fill="#e2e8f0">
    <rect x="24" y="120" width="212" height="40" rx="8" fill="#2563eb" />
    <text x="42" y="146">Overview</text>
    <rect x="24" y="170" width="212" height="40" rx="8" fill="#1e293b" />
    <text x="42" y="196">Cost Explorer</text>
    <rect x="24" y="220" width="212" height="40" rx="8" fill="#1e293b" />
    <text x="42" y="246">Query Explorer</text>
    <rect x="24" y="270" width="212" height="40" rx="8" fill="#1e293b" />
    <text x="42" y="296">Anomalies</text>
    <rect x="24" y="320" width="212" height="40" rx="8" fill="#1e293b" />
    <text x="42" y="346">Governance</text>
    <rect x="24" y="370" width="212" height="40" rx="8" fill="#1e293b" />
    <text x="42" y="396">Settings</text>
  </g>

  <text x="300" y="56" fill="#e2e8f0" font-size="34" font-family="Inter,Arial,sans-serif">Overview</text>
  <text x="300" y="84" fill="#94a3b8" font-size="16" font-family="Inter,Arial,sans-serif">Snowflake leadership dashboard (demo mode)</text>

  <g font-family="Inter,Arial,sans-serif">
    <rect x="300" y="120" width="220" height="120" rx="12" fill="#0f172a" stroke="#1e293b" />
    <text x="320" y="150" fill="#94a3b8" font-size="13">CREDITS / DAY</text>
    <text x="320" y="195" fill="#e2e8f0" font-size="36">148.2</text>

    <rect x="540" y="120" width="220" height="120" rx="12" fill="#0f172a" stroke="#1e293b" />
    <text x="560" y="150" fill="#94a3b8" font-size="13">P95 LATENCY</text>
    <text x="560" y="195" fill="#e2e8f0" font-size="36">912ms</text>

    <rect x="780" y="120" width="220" height="120" rx="12" fill="#0f172a" stroke="#1e293b" />
    <text x="800" y="150" fill="#94a3b8" font-size="13">ANOMALIES</text>
    <text x="800" y="195" fill="#e2e8f0" font-size="36">3</text>

    <rect x="1020" y="120" width="220" height="120" rx="12" fill="#0f172a" stroke="#1e293b" />
    <text x="1040" y="150" fill="#94a3b8" font-size="13">GOVERNANCE</text>
    <text x="1040" y="195" fill="#e2e8f0" font-size="36">6</text>
  </g>

  <rect x="300" y="270" width="940" height="360" rx="12" fill="#0f172a" stroke="#1e293b" />
  <text x="324" y="304" fill="#e2e8f0" font-size="20" font-family="Inter,Arial,sans-serif">Credit Burn Trend</text>
  <polyline fill="none" stroke="#38bdf8" stroke-width="4" points="330,550 420,510 510,530 600,450 690,470 780,430 870,410 960,390 1050,420 1140,370 1230,355" />
</svg>
